{"title":"Once Upon A Time in Mumbai Dobaara ! 2013 Hindi Movies PDVDRip X","uid":8824417,"size":747751278,"categoryP":"video","categoryS":"movies","magnet":"?xt=urn:btih:5de618ed4aaa31feacf0c886f8462d3d3fe4f7ed&amp;dn=Once+Upon+A+Time+in+Mumbai+Dobaara+%21+2013+Hindi+Movies+PDVDRip+X&amp;tr=udp%3A%2F%2Ftracker.openbittorrent.com%3A80&amp;tr=udp%3A%2F%2Fopen.demonii.com%3A1337&amp;tr=udp%3A%2F%2Ftracker.coppersurfer.tk%3A6969&amp;tr=udp%3A%2F%2Fexodus.desync.com%3A6969","seeders":2,"leechers":0,"uploader":"basicssom","files":2,"time":1376805796,"description":" &lt;a href=&quot;http://users2.jabry.com/myimghost/logo.jpg&quot; rel=&quot;nofollow&quot; target=&quot;_NEW&quot;&gt;http://users2.jabry.com/myimghost/logo.jpg&lt;/a&gt;\n\nOnce Upon A Time in Mumbai Dobaara ! 2013 Hindi Movies PDVDRip XviD with Sample ~ â˜»rDXâ˜»\n\nScreen Shots :\n &lt;a href=&quot;\nhttp://myimghosting.serveftp.com/13/OnceUponATimeinMumbaiDobaara.html&quot; rel=&quot;nofollow&quot; target=&quot;_NEW&quot;&gt;\nhttp://myimghosting.serveftp.com/13/OnceUponATimeinMumbaiDobaara.html&lt;/a&gt;\n &lt;a href=&quot;\nhttp://myimghost.cwahi.net/OnceUponATimeinMumbaiDobaara.html&quot; rel=&quot;nofollow&quot; target=&quot;_NEW&quot;&gt;\nhttp://myimghost.cwahi.net/OnceUponATimeinMumbaiDobaara.html&lt;/a&gt;\n &lt;a href=&quot;\nhttp://users2.jabry.com/myimghost/OnceUponATimeinMumbaiDobaara/OnceUponATimeinMumbaiDobaara.jpg&quot; rel=&quot;nofollow&quot; target=&quot;_NEW&quot;&gt;\nhttp://users2.jabry.com/myimghost/OnceUponATimeinMumbaiDobaara/OnceUponATimeinMumbaiDobaara.jpg&lt;/a&gt;\n &lt;a href=&quot;\nhttp://users2.jabry.com/myimghost/OnceUponATimeinMumbaiDobaara/OnceUponATimeinMumbaiDobaara1.jpg&quot; rel=&quot;nofollow&quot; target=&quot;_NEW&quot;&gt;\nhttp://users2.jabry.com/myimghost/OnceUponATimeinMumbaiDobaara/OnceUponATimeinMumbaiDobaara1.jpg&lt;/a&gt;\n &lt;a href=&quot;\nhttp://users2.jabry.com/myimghost/OnceUponATimeinMumbaiDobaara/OnceUponATimeinMumbaiDobaara2.jpg&quot; rel=&quot;nofollow&quot; target=&quot;_NEW&quot;&gt;\nhttp://users2.jabry.com/myimghost/OnceUponATimeinMumbaiDobaara/OnceUponATimeinMumbaiDobaara2.jpg&lt;/a&gt;\n &lt;a href=&quot;\nhttp://users2.jabry.com/myimghost/OnceUponATimeinMumbaiDobaara/OnceUponATimeinMumbaiDobaara3.jpg&quot; rel=&quot;nofollow&quot; target=&quot;_NEW&quot;&gt;\nhttp://users2.jabry.com/myimghost/OnceUponATimeinMumbaiDobaara/OnceUponATimeinMumbaiDobaara3.jpg&lt;/a&gt;\n &lt;a href=&quot;\nhttp://users2.jabry.com/myimghost/OnceUponATimeinMumbaiDobaara/OnceUponATimeinMumbaiDobaara4.jpg&quot; rel=&quot;nofollow&quot; target=&quot;_NEW&quot;&gt;\nhttp://users2.jabry.com/myimghost/OnceUponATimeinMumbaiDobaara/OnceUponATimeinMumbaiDobaara4.jpg&lt;/a&gt;\n\nFormat                                   : AVI\nFormat/Info                              : Audio Video Interleave\nFile size                                : 689 MiB\nDuration                                 : 2h 27mn\nOverall bit rate                         : 653 Kbps\nWriting library                          : MPlayer\n\nVideo\nID                                       : 0\nFormat                                   : MPEG-4 Visual\nFormat profile                           : Advanced Simple@L5\nFormat settings, BVOP                    : 3\nFormat settings, QPel                    : No\nFormat settings, GMC                     : No warppoints\nFormat settings, Matrix                  : Default (H.263)\nCodec ID                                 : XVID\nCodec ID/Hint                            : XviD\nDuration                                 : 2h 27mn\nBit rate                                 : 567 Kbps\nWidth                                    : 656 pixels\nHeight                                   : 224 pixels\nDisplay aspect ratio                     : 2.929\nFrame rate                               : 25.000 fps\nColor space                              : YUV\nChroma subsampling                       : 4:2:0\nBit depth                                : 8 bits\nScan type                                : Progressive\nCompression mode                         : Lossy\nBits/(Pixel*Frame)                       : 0.154\nStream size                              : 599 MiB (87%)\nWriting library                          : XviD 1.2.1 (UTC 2008-12-04)\n\nAudio\nID                                       : 1\nFormat                                   : MPEG Audio\nFormat version                           : Version 1\nFormat profile                           : Layer 3\nMode                                     : Joint stereo\nMode extension                           : MS Stereo\nCodec ID                                 : 55\nCodec ID/Hint                            : MP3\nDuration                                 : 2h 27mn\nBit rate mode                            : Constant\nBit rate                                 : 80.0 Kbps\nChannel(s)                               : 2 channels\nSampling rate                            : 32.0 KHz\nCompression mode                         : Lossy\nStream size                              : 84.5 MiB (12%)\nAlignment                                : Aligned on interleaves\nInterleave, duration                     : 468 ms (11.70 video frames)\nInterleave, preload duration             : 936 ms\nWriting library                          : LAME3.99.5","torrent":{"xt":"urn:btih:5de618ed4aaa31feacf0c886f8462d3d3fe4f7ed","amp;dn":"Once+Upon+A+Time+in+Mumbai+Dobaara+%21+2013+Hindi+Movies+PDVDRip+X","amp;tr":["udp%3A%2F%2Ftracker.openbittorrent.com%3A80","udp%3A%2F%2Fopen.demonii.com%3A1337","udp%3A%2F%2Ftracker.coppersurfer.tk%3A6969","udp%3A%2F%2Fexodus.desync.com%3A6969"],"infoHash":"5de618ed4aaa31feacf0c886f8462d3d3fe4f7ed","infoHashBuffer":{"type":"Buffer","data":[93,230,24,237,74,170,49,254,172,240,200,134,248,70,45,61,63,228,247,237]},"announce":[],"urlList":[]}}